<svg width="55" height="74" viewBox="0 0 55 74" fill="none" xmlns="http://www.w3.org/2000/svg">
<g clip-path="url(#clip0_137_21142)">
<path d="M13.4276 14.6667C13.4276 15.9695 13.3004 17.3145 13.0034 18.6595C11.3915 25.6364 8.59175 28.5365 4.68914 35.0512C1.63493 40.0948 0.616856 44.2978 0.404758 47.8283C0.404758 48.0805 0.362337 48.3746 0.362337 48.6269C0.362337 48.5428 0.362338 48.4167 0.319918 48.3326V48.2906C-0.995091 36.6483 1.93186 29.7974 5.66479 23.1567C6.25867 22.1059 6.85255 21.0552 7.44642 19.9625C12.1974 11.2202 9.52498 1.38518 9.3553 0.922852C9.3553 0.964881 9.39772 1.00691 9.44015 1.04894C9.44015 1.04894 9.44015 1.09097 9.48256 1.09097C9.94914 1.84751 13.4276 7.94185 13.4276 14.6667Z" fill="url(#paint0_linear_137_21142)"/>
<path d="M48.5511 64.1777C48.5086 64.2197 48.4238 64.3037 48.3814 64.3879C48.2965 64.4719 48.2541 64.598 48.1692 64.64C47.8299 65.0183 47.4482 65.4386 47.0663 65.8168C46.4724 66.4053 45.8361 66.9937 45.1575 67.498C42.273 69.8517 38.9217 71.6169 35.3161 72.6257H35.2313L35.0616 72.6678L34.5525 72.7518H34.5101L34.2557 72.7938L33.9162 72.8359H33.8314C33.7465 72.8359 33.6194 72.8779 33.5345 72.8779L32.983 72.9619H32.9406L32.3043 73.046L31.8801 73.088H31.4983L30.7772 73.1301H29.5895C29.3349 73.1301 29.038 73.088 28.7835 73.088C28.5289 73.088 28.2744 73.046 28.0199 73.046C27.8927 73.046 27.7654 73.0039 27.6381 73.0039C27.426 73.0039 27.214 72.9619 26.9594 72.9199H26.8745L26.1535 72.7938L25.7716 72.7098C25.5172 72.6678 25.305 72.5836 25.0506 72.5416L24.6687 72.4576L24.287 72.3315C24.1597 72.2895 24.0324 72.2475 23.9053 72.2054L23.8204 72.1634L23.6083 72.0793L23.3538 71.9532L23.1417 71.8692L23.0144 71.8271L22.5902 71.6591L22.4205 71.6169L22.0812 71.4909L21.7418 71.3228L21.36 71.1547L20.9783 70.9445L20.5964 70.7344L20.2996 70.5662L20.0026 70.3981C19.7905 70.2721 19.536 70.1459 19.3239 69.9778L18.9845 69.7257L18.6452 69.4735C18.4755 69.3474 18.3482 69.2212 18.1786 69.0952L18.0938 69.0111C18.0089 68.9271 17.924 68.8851 17.8392 68.801L17.6695 68.6748L17.2453 68.2545C17.1605 68.1705 17.118 68.0865 17.0333 68.0444C16.9484 68.0024 16.906 67.9184 16.8211 67.8343C16.6939 67.7082 16.5242 67.5401 16.397 67.372C16.2697 67.2038 16.0576 67.0357 15.9727 66.8676C15.8879 66.6994 15.7607 66.5734 15.6334 66.4053C15.591 66.3213 15.5485 66.2791 15.5061 66.2371C15.4637 66.1951 15.3788 66.111 15.3364 66.027L15.1244 65.7328C15.0395 65.6487 14.9971 65.5226 14.9122 65.4386C14.7002 65.1444 14.4881 64.8081 14.3183 64.4719C14.2759 64.3879 14.2335 64.3458 14.1911 64.2617V64.2197C14.1063 64.0936 14.0215 63.9255 13.9366 63.7574C13.8093 63.5472 13.7245 63.337 13.6396 63.1269C13.5549 62.9167 13.47 62.7066 13.3852 62.4545C12.3671 59.7645 11.9428 56.8645 12.1125 54.0064V53.6281C12.155 52.9137 12.2398 52.1991 12.4095 51.4846C12.4095 51.4426 12.4095 51.4426 12.4095 51.4006L12.4943 51.1064C12.7064 50.0976 13.0457 49.173 13.47 48.2483C13.47 48.2483 13.47 48.2903 13.4276 48.2903L13.47 48.2063C13.682 47.7019 13.9366 47.1556 14.2335 46.6092C14.2759 46.4831 14.3608 46.399 14.4032 46.2729C14.4456 46.1468 14.5305 46.0208 14.5729 45.9366C14.6153 45.8526 14.7002 45.6845 14.7426 45.6005C14.7849 45.5164 14.8274 45.4744 14.8698 45.3903L14.9971 45.1802C15.0395 45.0961 15.1244 45.0121 15.1668 44.9279L15.3364 44.6758C16.1424 43.4149 16.8211 42.2381 17.415 41.1032C17.5423 40.8511 17.6271 40.641 17.7543 40.4307L18.0089 39.9684C18.2634 39.5061 18.4755 39.0437 18.6876 38.6234C18.7725 38.4553 18.8148 38.3293 18.8997 38.1611L18.9421 38.0771C19.0694 37.7829 19.1967 37.5307 19.3239 37.2785C19.3663 37.1944 19.4087 37.1104 19.4511 37.0263L19.6633 36.564C19.6633 36.522 19.7057 36.4799 19.7057 36.4799C19.7057 36.4799 19.7057 36.4799 19.7057 36.4379C19.7905 36.2277 19.8754 36.0596 19.9601 35.8915C20.045 35.6813 20.1299 35.4712 20.2147 35.261C20.2571 35.135 20.2996 35.0089 20.342 34.9249C20.3844 34.7567 20.4693 34.5886 20.5116 34.4625C19.7057 37.7409 18.0938 41.6076 16.6939 46.3149C16.0151 48.5426 15.8878 50.8962 16.3121 53.2078C16.5666 54.6789 17.0756 56.0659 17.7968 57.3688C17.924 57.6631 18.0938 57.9152 18.2634 58.1674C18.3058 58.2515 18.6876 58.8819 19.2391 59.6805C19.3663 59.8066 19.4935 59.9326 19.6208 60.0588L19.7481 60.1848C19.833 60.2689 19.8754 60.3529 19.9601 60.437L20.3844 60.8573L20.4268 60.9413C20.5116 61.0255 20.5964 61.1095 20.6813 61.2356L21.2328 61.782C21.5722 62.1182 21.9963 62.4545 22.4205 62.8327L22.7175 63.0849L23.0144 63.295L23.1417 63.3791L23.3538 63.5473L23.481 63.6313L23.6931 63.7994C23.9053 63.9676 24.1597 64.1357 24.4143 64.3037L24.5839 64.4299L25.1353 64.7661C25.1778 64.7661 25.2202 64.8081 25.2202 64.8081L25.5172 64.9763L25.7292 65.1023C25.8141 65.1444 25.8989 65.1864 25.9838 65.2284L26.2382 65.3546L26.3655 65.3966L26.5777 65.4806C26.5777 65.4806 26.5777 65.4806 26.6201 65.4806L26.7898 65.5647L26.8745 65.6067L27.0867 65.6907L27.3412 65.8168H27.3836L27.7654 65.985L27.8078 66.027L27.9351 66.069L28.0623 66.1111L28.3169 66.2371L28.7835 66.4053H28.8259L29.3349 66.6154L29.5895 66.6994C30.65 67.1198 31.7529 67.456 32.8982 67.6661H33.0679C34.3828 67.9184 35.7403 68.0444 37.0553 68.0444C39.346 68.0444 41.6367 67.7082 43.8 66.9937L44.0545 66.8676C44.0969 66.8676 44.0969 66.8256 44.1394 66.8256L44.7332 66.5734L44.9454 66.4893L45.0302 66.4473H45.0727L45.1575 66.4053L45.2423 66.3633L45.3695 66.3213L45.4544 66.2791H45.4968L45.6241 66.1951C45.6665 66.1951 45.709 66.1531 45.7514 66.1111L45.8361 66.069H45.8786L46.0058 65.985L46.0483 65.943L46.218 65.8168L46.3452 65.7328L46.43 65.6907L46.8543 65.3966L47.236 65.1444L47.4482 65.0183L47.4905 64.9763L47.7451 64.8081C47.8723 64.682 48.042 64.598 48.1268 64.4719L48.5511 64.1777Z" fill="url(#paint1_linear_137_21142)"/>
<path d="M13.4278 48.291L13.3853 48.4171C13.3853 48.3751 13.3853 48.333 13.4278 48.291Z" fill="url(#paint2_linear_137_21142)"/>
<path d="M35.0196 72.752L34.553 72.9202C20.0879 76.6188 5.36832 68.1708 1.29603 54.0487C0.362794 51.4008 0.362793 48.6269 0.362793 48.6269C0.362793 48.3746 0.362794 48.1225 0.405214 47.8283C0.617312 44.2978 1.6778 40.0948 4.6896 35.0512C8.59221 28.5365 11.3919 25.6364 13.0038 18.6595C13.3008 17.3145 13.4281 15.9695 13.4281 14.6667C13.4281 7.94185 9.94966 1.84751 9.48302 1.09097C9.4406 1.09097 9.4406 1.04894 9.4406 1.04894C9.39818 1.00691 9.39818 0.964881 9.35576 0.922852C9.82237 1.30112 20.7667 9.91726 21.6574 22.9046C21.6574 22.9046 21.7423 24.0393 21.7423 25.6364C21.7423 28.0321 21.5727 31.4786 20.7242 33.6642C20.6818 33.8743 20.6394 34.1265 20.5121 34.4628C20.4697 34.5889 20.3849 34.757 20.3425 34.925C20.3001 35.0092 20.2576 35.1352 20.2152 35.2613C20.1303 35.4715 20.0455 35.6816 19.9606 35.8917C19.8759 36.0599 19.791 36.228 19.7062 36.4382C19.7062 36.4802 19.7062 36.4802 19.7062 36.4802C19.7062 36.4802 19.6637 36.5222 19.6637 36.5643L19.4516 37.0266C19.4092 37.1106 19.3668 37.1947 19.3243 37.2787C19.1972 37.531 19.0699 37.7831 18.9426 38.0773L18.9002 38.1614C18.8153 38.3295 18.7729 38.4556 18.6881 38.6237C18.476 39.044 18.2639 39.5064 18.0094 39.9687L17.7548 40.431C17.6276 40.6411 17.5428 40.8513 17.4155 41.1035C16.8216 42.2383 16.1429 43.4151 15.3369 44.6761L15.1673 44.9282C15.1249 45.0122 15.04 45.0963 14.9976 45.1804L14.8703 45.3905C14.8279 45.4746 14.7854 45.5166 14.743 45.6006C14.7007 45.6848 14.6158 45.8529 14.5734 45.9369C14.531 46.021 14.4461 46.1471 14.4037 46.2732C14.3613 46.3992 14.2764 46.4833 14.234 46.6095C13.9371 47.1558 13.6825 47.7022 13.4705 48.2066L13.4281 48.2906C13.4281 48.2906 13.4281 48.2906 13.4705 48.2906C13.0462 49.2153 12.7069 50.0979 12.4948 51.1066L12.41 51.4008C12.41 51.4429 12.41 51.4429 12.41 51.4849C12.2403 52.1994 12.1555 52.9139 12.113 53.6284V54.0067C11.9433 56.8647 12.3676 59.7648 13.3856 62.4547C13.4705 62.7069 13.5554 62.917 13.6401 63.1272C13.725 63.3373 13.8098 63.5474 13.9371 63.7576C14.022 63.9257 14.1068 64.0939 14.1916 64.22V64.262C14.234 64.346 14.2764 64.3881 14.3188 64.4721C14.4885 64.8084 14.7007 65.1446 14.9127 65.4388C14.9976 65.5229 15.04 65.649 15.1249 65.733L15.3369 66.0273C15.3793 66.1113 15.4642 66.1954 15.5066 66.2374C15.549 66.2794 15.5915 66.3214 15.6339 66.4055C15.7612 66.5737 15.8883 66.6997 15.9732 66.8678C16.0581 67.036 16.2702 67.2041 16.3975 67.3722C16.5246 67.5404 16.6944 67.7084 16.8216 67.8345C16.9065 67.9185 16.9489 68.0027 17.0337 68.0447C17.1185 68.0867 17.161 68.1708 17.2458 68.2548L17.67 68.6751L17.8397 68.8012C17.9245 68.8852 18.0094 68.9274 18.0942 69.0114L18.179 69.0954C18.3487 69.2215 18.476 69.3476 18.6457 69.4737L18.985 69.7259L19.3243 69.9781C19.5365 70.1462 19.791 70.2722 20.0031 70.3984L20.3001 70.5665L20.5969 70.7346L20.9788 70.9448L21.3605 71.1549L21.7423 71.323L22.0817 71.4912L22.421 71.6172L22.5907 71.6592L23.0149 71.8274L23.1422 71.8694L23.3542 71.9535L23.6088 72.0796L23.8209 72.1636L23.9058 72.2056C24.0329 72.2476 24.1602 72.2897 24.2875 72.3318L24.6692 72.4578L25.0511 72.5419C25.3055 72.5839 25.5177 72.6679 25.7721 72.71L26.154 72.7941L26.875 72.9202H26.9599C27.2145 72.9622 27.4265 73.0042 27.6386 73.0042C27.7659 73.0042 27.8932 73.0462 28.0204 73.0462C28.2749 73.0462 28.5294 73.0883 28.784 73.0883C29.0385 73.0883 29.3354 73.1303 29.59 73.1303H30.7777L31.4988 73.0883H31.8806L32.3048 73.0462L32.9411 72.9622H32.9835L33.535 72.8782C33.6198 72.8782 33.747 72.8361 33.8319 72.8361H33.9167L34.2561 72.7941L34.5106 72.752H34.5955L34.8499 72.71L35.0196 72.752Z" fill="url(#paint3_linear_137_21142)"/>
<path d="M51.2236 60.1012C51.2236 60.1432 51.2236 60.1852 51.1812 60.2274C51.1812 60.2694 51.1812 60.2694 51.1387 60.3114C51.1387 60.4375 51.0964 60.4795 51.0964 60.5635C51.054 60.6896 50.9691 60.8578 50.9267 60.9838C50.757 61.2361 50.5873 61.4882 50.4177 61.7404C49.9087 62.5389 49.3148 63.2955 48.7209 64.01L48.6785 64.052L48.636 64.094L48.3815 64.3883L48.3391 64.4303L48.127 64.5985C47.9997 64.6825 47.8725 64.8086 47.7452 64.9346L47.618 65.0187L47.4907 65.1028L47.4483 65.1449L47.2362 65.2709L47.109 65.355L46.7696 65.6072L46.3454 65.9013L46.2605 65.9434L46.1333 66.0274L45.9636 66.1536L45.9212 66.1956L45.7939 66.2796H45.7515L45.6667 66.3216C45.6242 66.3637 45.5818 66.3637 45.5394 66.4057L45.4121 66.4897H45.3698L45.2849 66.5319L45.1576 66.5739L45.0728 66.6159L44.9879 66.6579H44.9455L44.8606 66.6999L44.6486 66.784L44.3516 66.91L44.0547 67.0362C44.0123 67.0362 44.0123 67.0782 43.9699 67.0782L43.7153 67.2043C40.2369 68.3391 36.504 68.5493 32.8983 67.8767H32.8559C31.7106 67.6666 30.6077 67.3304 29.5472 66.91L29.2927 66.826L28.7836 66.6159H28.7412L28.2746 66.4477L28.0201 66.3216L27.8928 66.2796L27.7655 66.2376L27.7231 66.1956L27.3414 66.0274H27.2989L27.0444 65.9013L26.8323 65.8173L26.7475 65.7753L26.5778 65.6912C26.5778 65.6912 26.5778 65.6912 26.5354 65.6912L26.3233 65.6072L26.196 65.5652L25.9415 65.439C25.8567 65.397 25.7719 65.355 25.687 65.3129L25.4749 65.1869L25.178 65.0187C25.1356 65.0187 25.1356 64.9767 25.0931 64.9767L24.5417 64.6405L24.372 64.5143C24.1175 64.3462 23.9054 64.1782 23.6508 64.01L23.4388 63.8419L23.3115 63.7579L23.0994 63.5897L22.9722 63.5056L22.6752 63.2955L22.3783 63.0433C21.954 62.6651 21.5299 62.3288 21.1905 61.9926L20.8511 61.6563L20.6391 61.4462C20.5542 61.3621 20.4694 61.2361 20.3845 61.1519L19.9179 60.6476L19.8755 60.6056C19.8331 60.5635 19.7907 60.5215 19.7482 60.4795C19.7482 60.4795 19.7482 60.4375 19.7058 60.4375C19.5362 60.2274 19.3665 59.9751 19.1968 59.765C19.3241 59.8911 19.4513 60.0172 19.5785 60.1432C19.7058 60.2694 19.8331 60.3954 19.9604 60.4795C20.427 60.8998 20.8936 61.2781 21.4026 61.5722L21.6571 61.6984C23.9478 63.0433 27.0868 63.5897 31.3712 62.581C32.262 62.3288 33.1529 61.9926 33.9588 61.6143C35.1465 61.0679 36.2919 60.3534 37.2676 59.5128C37.8615 58.9664 38.4129 58.336 38.8795 57.6214C39.2613 57.0751 39.6007 56.4867 39.8976 55.8561C40.1946 55.2257 40.449 54.5953 40.6187 53.9229C40.9156 52.9141 41.0853 51.9053 41.1278 50.8546C41.2126 49.4256 41.0429 47.9966 40.6612 46.6096C40.5763 46.3154 40.4915 46.0632 40.3642 45.8111L40.0249 45.2227L39.9824 45.1805H41.3399L41.8065 45.2227L42.2731 45.2647C42.7397 45.3487 43.2487 45.4328 43.7153 45.5168C43.9699 45.5588 44.182 45.6429 44.4365 45.685L44.691 45.769C45.2425 45.9371 45.8364 46.1894 46.3454 46.4835C46.5574 46.6096 46.7696 46.7357 46.9817 46.8618C47.1937 46.9879 47.4059 47.156 47.5756 47.2821C47.7876 47.4502 47.9573 47.5763 48.127 47.7444L48.636 48.2488C48.9754 48.5851 49.2724 48.9633 49.5268 49.3416C49.6541 49.5096 49.7814 49.6778 49.8662 49.8459C49.9934 50.014 50.0358 50.0981 50.1207 50.2242C50.2904 50.4763 50.4177 50.7706 50.5449 51.0648C50.6297 51.1909 50.6721 51.359 50.7146 51.485C50.9267 52.0315 51.1388 52.6199 51.266 53.1663C51.3084 53.2924 51.3084 53.4184 51.3509 53.5026V53.5446C51.3933 53.6706 51.3933 53.7967 51.4357 53.9229C51.4782 54.0489 51.4782 54.133 51.4782 54.217C51.8599 56.1924 51.7326 58.1678 51.2236 60.1012Z" fill="url(#paint4_linear_137_21142)"/>
<path d="M13.4278 48.291L13.3853 48.4171C13.3853 48.3751 13.3853 48.333 13.4278 48.291Z" fill="url(#paint5_linear_137_21142)"/>
<path d="M35.3588 72.6263L35.0619 72.7944L34.9771 72.7524L35.3588 72.6263Z" fill="url(#paint6_linear_137_21142)"/>
<path d="M51.6471 59.8491L50.9683 60.942C51.0108 60.8158 51.0532 60.6898 51.138 60.5217C51.138 60.4376 51.1805 60.3535 51.1805 60.2695C51.1805 60.2274 51.1805 60.2274 51.2229 60.1854C51.7319 59.0506 52.6228 56.781 52.8772 55.6882C52.8772 55.6462 52.9197 55.6042 52.9197 55.5622C53.3014 53.8389 53.5135 52.0736 53.5135 50.3084C53.5135 50.0562 53.5135 49.8041 53.5135 49.5518C53.5135 49.2997 53.5135 49.0475 53.4711 48.7953C53.4711 48.5431 53.4287 48.291 53.4287 48.0388C53.3863 47.7866 53.3863 47.5764 53.3438 47.3663C53.3014 47.1561 53.2591 46.904 53.2591 46.6938C53.2167 46.5677 53.2167 46.4837 53.2167 46.3576C53.1742 46.1894 53.1742 46.0213 53.1318 45.8533C53.0894 45.6851 53.047 45.475 53.0045 45.3068C52.9621 45.0547 52.8772 44.8444 52.8348 44.5923C52.7924 44.3401 52.7075 44.13 52.6228 43.8778C52.4955 43.4155 52.3258 42.9532 52.1561 42.4909C51.9865 42.0285 51.8168 41.5662 51.6046 41.1459C51.5199 40.9357 51.3926 40.6835 51.3077 40.4734C51.1805 40.2632 51.0956 40.0531 50.9683 39.8009C50.8836 39.5908 50.7563 39.4226 50.6714 39.2545C50.5866 39.1285 50.5442 39.0023 50.4593 38.8762C50.3745 38.7081 50.2897 38.54 50.1624 38.4139C50.0351 38.1618 49.8654 37.9516 49.6958 37.6994C49.611 37.5312 49.4837 37.3632 49.3564 37.1951C49.3564 37.1951 49.314 37.1531 49.314 37.111C49.0595 36.7327 48.7625 36.3545 48.4656 35.9762C48.1686 35.5979 47.8718 35.2197 47.5324 34.8414C46.0477 33.2022 44.3509 31.7732 42.3996 30.5543C40.8725 29.5876 39.2606 28.831 37.5638 28.2426C37.0123 28.0746 36.5033 27.9485 36.1639 27.8643C35.867 27.7803 35.6549 27.7383 35.5276 27.7383V27.8223C35.8246 28.789 36.079 29.7977 36.2487 30.8065C36.2487 30.8486 36.2487 30.8486 36.2487 30.8906C36.2487 31.0166 36.2487 31.1427 36.2487 31.2688C36.2487 36.8588 28.5708 37.111 27.2982 44.5923C27.2134 45.0126 27.1285 45.3909 27.0012 45.7691C25.6439 49.8881 21.2746 52.2838 20.7656 52.5359H20.7231C20.8929 52.3258 21.2746 51.9475 21.6564 51.1911C22.0382 50.4345 22.4624 49.3417 22.8441 47.7445C23.2684 45.9793 23.5653 44.172 23.6501 42.3227C23.6925 41.0198 23.8622 39.6748 24.1167 38.3719C24.244 37.6574 24.4137 36.9849 24.5833 36.3545C25.7286 32.1094 27.6376 29.1253 28.7829 26.9818C29.2071 26.2672 29.504 25.4687 29.6738 24.6281C29.8434 23.1571 29.6738 21.9802 29.504 20.1309C29.3343 18.3236 28.698 16.6003 27.68 15.0873C28.0193 15.2554 32.5159 17.567 35.3155 20.341C35.9943 20.9715 36.5457 21.686 37.0123 22.4425C37.3516 23.1991 38.0728 23.7455 38.9211 23.9135C40.1938 24.1238 50.2473 28.2847 53.5984 37.9516C53.6408 38.0777 53.6833 38.2038 53.7257 38.3719C53.8529 38.7502 53.9801 39.1705 54.065 39.5908C54.1499 40.0111 54.2771 40.5155 54.362 40.9778C54.6165 42.3647 54.7862 43.6677 54.9134 44.8866C55.3376 50.1402 54.1923 55.3099 51.6471 59.8491Z" fill="url(#paint7_linear_137_21142)"/>
<path d="M53.5141 50.3078C53.5141 52.0731 53.302 53.8384 52.9202 55.5616C52.9202 55.6036 52.8778 55.6456 52.8778 55.6877C52.5809 56.7805 51.69 59.05 51.2234 60.1849C51.2234 60.1429 51.2234 60.1009 51.2659 60.0588C51.7749 58.1255 51.9022 56.15 51.5627 54.1325C51.5627 54.0485 51.5627 53.9644 51.5204 53.8384C51.478 53.7122 51.478 53.5862 51.4356 53.4601V53.4181C51.3931 53.334 51.3931 53.2079 51.3507 53.0818C51.2234 52.5354 51.0113 51.947 50.7993 51.4006C50.7568 51.2745 50.7144 51.1064 50.6296 50.9803C50.5023 50.6861 50.3751 50.3919 50.2054 50.1397C50.1205 50.0136 50.0781 49.9296 49.9508 49.7614C49.866 49.5933 49.7388 49.4252 49.6115 49.2571C49.3569 48.8788 49.0601 48.5006 48.7206 48.1643L48.2116 47.66C48.042 47.4919 47.8723 47.3657 47.6602 47.1976C47.4906 47.0716 47.2784 46.9034 47.0663 46.7773C46.8542 46.6512 46.6421 46.5252 46.43 46.399C45.9209 46.1049 45.3271 45.8526 44.7756 45.6846L44.5212 45.6005C44.2666 45.5585 44.0546 45.4743 43.8 45.4323C43.3334 45.3483 42.8244 45.2642 42.3578 45.1802L41.8911 45.1382L41.4245 45.0962H40.067L40.1094 45.1382H39.9823C37.2249 45.1382 34.5525 45.8526 32.177 47.1976C31.8801 47.3657 31.7104 47.4919 31.6255 47.5339H31.5831C31.2438 47.744 30.9044 47.9962 30.5651 48.2484C29.8015 48.8368 29.1228 49.5093 28.4865 50.2658C28.4441 50.3498 28.3593 50.3919 28.3168 50.476C28.2744 50.56 28.1047 50.6861 28.0198 50.8121C27.8502 51.0224 27.7654 51.1484 27.7654 51.1484C27.7654 51.1484 26.1959 52.9978 24.1597 53.4601C23.0992 53.7122 21.9539 53.4601 21.0631 52.8297C20.9782 52.7455 20.851 52.6615 20.7661 52.5774H20.851C21.36 52.3253 25.7292 49.9296 27.0866 45.8106C27.2139 45.4323 27.2988 45.0541 27.3836 44.6338C28.6561 37.1524 36.3341 36.9003 36.3341 31.3103C36.3341 31.1842 36.3341 31.0581 36.3341 30.932C36.3341 30.89 36.3341 30.89 36.3341 30.8479C36.1644 29.8392 35.91 28.8305 35.613 27.8638V27.7798C35.7403 27.8218 35.9524 27.8638 36.2493 27.9058C36.5887 27.9899 37.0977 28.1161 37.6492 28.2841C39.346 28.8725 40.9579 29.6291 42.485 30.5958C44.4363 31.7726 46.1331 33.2437 47.6177 34.8829C47.9571 35.2611 48.254 35.6394 48.551 36.0177C48.8479 36.396 49.1449 36.7741 49.3994 37.1524C49.3994 37.1524 49.4418 37.1945 49.4418 37.2365C49.5691 37.4047 49.6539 37.5727 49.7812 37.7409C49.9508 37.9931 50.0781 38.2032 50.2478 38.4554C50.3327 38.6235 50.4174 38.7496 50.5447 38.9177C50.6296 39.0438 50.672 39.1699 50.7568 39.296C50.8417 39.4641 50.969 39.6742 51.0537 39.8424C51.181 40.0525 51.2659 40.2627 51.3931 40.5148C51.478 40.725 51.6052 40.9351 51.69 41.1874C51.9022 41.6497 52.0719 42.0699 52.2415 42.5323C52.4112 42.9946 52.5809 43.4569 52.7081 43.9193C52.7929 44.1295 52.8354 44.3816 52.9202 44.6338C53.0051 44.8859 53.0475 45.0962 53.0899 45.3483C53.1323 45.5165 53.1748 45.7266 53.2172 45.8947C53.2596 46.0628 53.302 46.2309 53.302 46.399C53.302 46.5252 53.3444 46.6092 53.3444 46.7353C53.3868 46.9454 53.4292 47.1976 53.4292 47.4077C53.4292 47.6179 53.4717 47.8701 53.5141 48.0803C53.5565 48.3324 53.5565 48.5846 53.5565 48.8367C53.5565 49.089 53.5989 49.3411 53.5989 49.5933C53.5141 49.8034 53.5141 50.0557 53.5141 50.3078Z" fill="url(#paint8_linear_137_21142)"/>
<path d="M51.6055 41.188C51.8176 41.6503 51.9872 42.0705 52.1569 42.5329C51.9872 42.0705 51.7752 41.6082 51.6055 41.188Z" fill="url(#paint9_linear_137_21142)"/>
<path d="M52.1143 42.5321C52.2839 42.9944 52.4536 43.4568 52.5809 43.9191C52.4536 43.4568 52.2839 42.9944 52.1143 42.5321Z" fill="url(#paint10_linear_137_21142)"/>
</g>
<defs>
<linearGradient id="paint0_linear_137_21142" x1="0.0214103" y1="24.7834" x2="13.4402" y2="24.7834" gradientUnits="userSpaceOnUse">
<stop stop-color="#DF7313"/>
<stop offset="0.38" stop-color="#DF7323"/>
<stop offset="0.68" stop-color="#FFB300"/>
<stop offset="0.88" stop-color="#FFC946"/>
<stop offset="1" stop-color="#FFD66D"/>
</linearGradient>
<linearGradient id="paint1_linear_137_21142" x1="30.3263" y1="73.1387" x2="30.3263" y2="34.4712" gradientUnits="userSpaceOnUse">
<stop offset="0.000530867" stop-color="#D25900"/>
<stop offset="0.3787" stop-color="#DF7323"/>
<stop offset="0.6805" stop-color="#FFB300"/>
<stop offset="0.8182" stop-color="#FFC946"/>
<stop offset="0.9042" stop-color="#FFD66D"/>
</linearGradient>
<linearGradient id="paint2_linear_137_21142" x1="13.4139" y1="48.4268" x2="13.4228" y2="48.2984" gradientUnits="userSpaceOnUse">
<stop stop-color="#FFB300"/>
<stop offset="0.0250874" stop-color="#FAAA05"/>
<stop offset="0.1068" stop-color="#EE9212"/>
<stop offset="0.193" stop-color="#E6811C"/>
<stop offset="0.2861" stop-color="#E17621"/>
<stop offset="0.3984" stop-color="#DF7323"/>
<stop offset="0.6888" stop-color="#FFC300"/>
<stop offset="0.7306" stop-color="#FFC404"/>
<stop offset="0.7705" stop-color="#FFC50F"/>
<stop offset="0.8098" stop-color="#FFC823"/>
<stop offset="0.8486" stop-color="#FFCB3E"/>
<stop offset="0.8868" stop-color="#FFD060"/>
<stop offset="0.8999" stop-color="#FFD26E"/>
<stop offset="0.9338" stop-color="#FED271"/>
<stop offset="0.9617" stop-color="#FCD37B"/>
<stop offset="0.9873" stop-color="#F9D38D"/>
<stop offset="1" stop-color="#F7D498"/>
</linearGradient>
<linearGradient id="paint3_linear_137_21142" x1="16.8193" y1="73.1061" x2="21.7598" y2="1.79783" gradientUnits="userSpaceOnUse">
<stop stop-color="#FFB300"/>
<stop offset="0.0250874" stop-color="#FAAA05"/>
<stop offset="0.1068" stop-color="#EE9212"/>
<stop offset="0.193" stop-color="#E6811C"/>
<stop offset="0.2861" stop-color="#E17621"/>
<stop offset="0.3984" stop-color="#DF7323"/>
<stop offset="0.6888" stop-color="#FFC300"/>
<stop offset="0.7306" stop-color="#FFC404"/>
<stop offset="0.7705" stop-color="#FFC50F"/>
<stop offset="0.8098" stop-color="#FFC823"/>
<stop offset="0.8486" stop-color="#FFCB3E"/>
<stop offset="0.8868" stop-color="#FFD060"/>
<stop offset="0.8999" stop-color="#FFD26E"/>
<stop offset="0.9338" stop-color="#FED271"/>
<stop offset="0.9617" stop-color="#FCD37B"/>
<stop offset="0.9873" stop-color="#F9D38D"/>
<stop offset="1" stop-color="#F7D498"/>
</linearGradient>
<linearGradient id="paint4_linear_137_21142" x1="19.2519" y1="56.6862" x2="51.7215" y2="56.6862" gradientUnits="userSpaceOnUse">
<stop stop-color="#FFD66D"/>
<stop offset="0.0758486" stop-color="#FFC946"/>
<stop offset="0.1973" stop-color="#FFB300"/>
<stop offset="0.444" stop-color="#DF7323"/>
<stop offset="0.858" stop-color="#D25900"/>
</linearGradient>
<linearGradient id="paint5_linear_137_21142" x1="13.4139" y1="48.4268" x2="13.4222" y2="48.3064" gradientUnits="userSpaceOnUse">
<stop stop-color="#FFB300"/>
<stop offset="0.03" stop-color="#FAAA05"/>
<stop offset="0.11" stop-color="#EE9212"/>
<stop offset="0.19" stop-color="#E6811C"/>
<stop offset="0.29" stop-color="#E17621"/>
<stop offset="0.4" stop-color="#DF7323"/>
<stop offset="0.69" stop-color="#FFC300"/>
<stop offset="0.73" stop-color="#FFC404"/>
<stop offset="0.77" stop-color="#FFC50F"/>
<stop offset="0.81" stop-color="#FFC823"/>
<stop offset="0.85" stop-color="#FFCB3E"/>
<stop offset="0.89" stop-color="#FFD060"/>
<stop offset="0.9" stop-color="#FFD26E"/>
<stop offset="0.93" stop-color="#FED271"/>
<stop offset="0.96" stop-color="#FCD37B"/>
<stop offset="0.99" stop-color="#F9D38D"/>
<stop offset="1" stop-color="#F7D498"/>
</linearGradient>
<linearGradient id="paint6_linear_137_21142" x1="35.1727" y1="72.8099" x2="35.1857" y2="72.6221" gradientUnits="userSpaceOnUse">
<stop stop-color="#FFB300"/>
<stop offset="0.03" stop-color="#FAAA05"/>
<stop offset="0.11" stop-color="#EE9212"/>
<stop offset="0.19" stop-color="#E6811C"/>
<stop offset="0.29" stop-color="#E17621"/>
<stop offset="0.4" stop-color="#DF7323"/>
<stop offset="0.69" stop-color="#FFC300"/>
<stop offset="0.73" stop-color="#FFC404"/>
<stop offset="0.77" stop-color="#FFC50F"/>
<stop offset="0.81" stop-color="#FFC823"/>
<stop offset="0.85" stop-color="#FFCB3E"/>
<stop offset="0.89" stop-color="#FFD060"/>
<stop offset="0.9" stop-color="#FFD26E"/>
<stop offset="0.93" stop-color="#FED271"/>
<stop offset="0.96" stop-color="#FCD37B"/>
<stop offset="0.99" stop-color="#F9D38D"/>
<stop offset="1" stop-color="#F7D498"/>
</linearGradient>
<linearGradient id="paint7_linear_137_21142" x1="37.9093" y1="60.9506" x2="37.9093" y2="15.1799" gradientUnits="userSpaceOnUse">
<stop stop-color="#FFB300"/>
<stop offset="0.49" stop-color="#FFC300"/>
<stop offset="0.57" stop-color="#FFC719"/>
<stop offset="0.75" stop-color="#FFD259"/>
<stop offset="1" stop-color="#FFE4BE"/>
</linearGradient>
<linearGradient id="paint8_linear_137_21142" x1="37.1315" y1="60.2061" x2="37.1315" y2="27.8304" gradientUnits="userSpaceOnUse">
<stop stop-color="#FFB38A"/>
<stop offset="0.07" stop-color="#FFB35B"/>
<stop offset="0.15" stop-color="#FFB334"/>
<stop offset="0.22" stop-color="#FFB317"/>
<stop offset="0.28" stop-color="#FFB306"/>
<stop offset="0.32" stop-color="#FFB300"/>
<stop offset="0.81" stop-color="#DF7323"/>
<stop offset="1" stop-color="#D25900"/>
</linearGradient>
<linearGradient id="paint9_linear_137_21142" x1="51.8642" y1="41.174" x2="51.8642" y2="42.5363" gradientUnits="userSpaceOnUse">
<stop stop-color="#FFB38A"/>
<stop offset="0.07" stop-color="#FFB35B"/>
<stop offset="0.15" stop-color="#FFB334"/>
<stop offset="0.22" stop-color="#FFB317"/>
<stop offset="0.28" stop-color="#FFB306"/>
<stop offset="0.32" stop-color="#FFB300"/>
<stop offset="0.81" stop-color="#DF7323"/>
<stop offset="1" stop-color="#D25900"/>
</linearGradient>
<linearGradient id="paint10_linear_137_21142" x1="52.3623" y1="42.5307" x2="52.3623" y2="43.9267" gradientUnits="userSpaceOnUse">
<stop stop-color="#FFB38A"/>
<stop offset="0.07" stop-color="#FFB35B"/>
<stop offset="0.15" stop-color="#FFB334"/>
<stop offset="0.22" stop-color="#FFB317"/>
<stop offset="0.28" stop-color="#FFB306"/>
<stop offset="0.32" stop-color="#FFB300"/>
<stop offset="0.81" stop-color="#DF7323"/>
<stop offset="1" stop-color="#D25900"/>
</linearGradient>
<clipPath id="clip0_137_21142">
<rect width="55" height="74" fill="white"/>
</clipPath>
</defs>
</svg>
